# xmcd
# 
# Track frame offsets:
#     150
#     12980
#     29640
#     40762
#     55350
#     70980
#     89115
#     102850
#     115665
#     135087
#     152880
#     165780
#     178747
#     190937
#     201855
#     218230
# 
# Disc length: 3079
# 
# Revision: 1
# Processed by: cddbd v1.5.2PL0 Copyright (c) Steve Scherf et al.
# Submitted via: fre:ac v1.0.31
# 
DISCID=db0c0510
DTITLE=Jonny Hill - Jonny Hill - Mein Lied für dich
DYEAR=0
DGENRE=Country
TTITLE0=Es sind nur Erinnerungen
TTITLE1=Rosen für Mama
TTITLE2=Ich fahr meine Tour
TTITLE3=Wie heißt deine Mama
TTITLE4=Pack doch deinen Koffer wieder aus
TTITLE5=Sylvia`s Mutter
TTITLE6=Ich lösche das Licht aus
TTITLE7=Mein Lied für dich
TTITLE8=Der alte Mann
TTITLE9=Der alte Fluß
TTITLE10=Mein bester Freund
TTITLE11=Mexican Joe
TTITLE12=Der Zug, der heimwärts geht
TTITLE13=Die Arbeit hört nie auf
TTITLE14=Und dann gehst du alleine nach Hause
TTITLE15=Die letzte Reise
EXTD=
EXTT0=
EXTT1=
EXTT2=
EXTT3=
EXTT4=
EXTT5=
EXTT6=
EXTT7=
EXTT8=
EXTT9=
EXTT10=
EXTT11=
EXTT12=
EXTT13=
EXTT14=
EXTT15=
PLAYORDER=
